<svg width="1024" height="1024" viewBox="0 0 1024 1024" fill="none" xmlns="http://www.w3.org/2000/svg" aria-hidden="true" focusable="false">
<g clip-path="url(#clip0_22_371)">
<path d="M431.828 -0.168021C432.821 -0.174237 432.821 -0.174237 433.834 -0.180579C435.972 -0.190234 438.111 -0.190241 440.25 -0.187552C440.976 -0.187612 441.701 -0.187673 442.449 -0.187735C452.775 -0.17542 462.815 0.161026 473 1.99995C473.897 2.13272 474.794 2.26549 475.719 2.40229C514.493 8.53384 554.415 27.8508 578.344 59.7944C583.575 67.0691 587.978 74.3257 591.258 82.707C594.757 87.3125 601.476 87.0914 606.879 87.8593C607.953 88.0021 609.027 88.1448 610.134 88.2919C639.505 92.2153 667.362 101.064 694 114C695.248 114.6 695.248 114.6 696.521 115.213C718.879 126.088 739.209 140.013 757.555 156.777C759.126 158.205 760.713 159.616 762.32 161.004C773.982 171.145 784.547 182.789 794 195C794.438 195.561 794.877 196.121 795.329 196.699C814.251 220.976 829.323 247.795 844.163 274.68C849.039 283.492 853.997 292.258 859 301C859.523 301.916 860.045 302.832 860.584 303.775C871.55 322.915 883.23 341.548 898 358C898.574 358.682 899.147 359.364 899.738 360.066C912.091 374.748 926.522 388.292 943.863 396.816C946.044 398.024 947.474 399.03 949 401C949.778 408 949.778 408 947.332 411.144C937.193 419.211 916.877 416.918 904.747 415.79C901.456 415.374 898.221 414.791 895 414C895.303 414.657 895.606 415.315 895.918 415.992C898.709 422.331 900.898 428.645 902.75 435.312C903.066 436.44 903.066 436.44 903.387 437.591C905.87 446.781 906.216 455.757 906.24 465.23C906.25 467.466 906.281 469.702 906.312 471.937C906.409 484.893 904.544 496.995 899.938 509.187C899.682 509.897 899.426 510.607 899.162 511.338C898.182 514.021 897.215 516.617 895.816 519.113C894.261 522.708 894.552 525.66 895.784 529.346C896.914 532.181 898.125 534.966 899.375 537.75C899.826 538.767 900.277 539.784 900.742 540.832C906.574 553.759 912.963 566.346 922.041 577.324C924.433 580.386 925.007 581.797 924.863 585.742C923.861 589.525 923.328 590.92 920 593C902.501 595.295 882.014 584.343 868 575C867.794 576.176 867.588 577.351 867.375 578.562C859.9 611.605 836.177 638.216 809 657C807.855 657.712 806.709 658.423 805.562 659.133C802.636 660.809 802.636 660.809 802.438 664.312C803.741 680.315 808.427 695.977 817.141 709.459C819.306 712.966 820.014 714.551 819.883 718.812C819 722 819 722 817 724.5C811.743 727.129 807.528 725.724 802.055 724.156C790.124 720.052 779.675 713.099 771 704C770.744 704.513 770.488 705.025 770.225 705.554C762.04 721.839 752.365 739.363 737 750C733.901 750.758 731.117 750.672 728 750C724.595 746.953 722.914 743.115 721 739C719.459 741.311 718.165 743.513 716.891 745.965C706.375 765.853 693.606 783.883 678.355 800.426C676.438 802.521 674.584 804.645 672.75 806.812C665.437 815.219 657.357 823.167 648.855 830.363C646.638 832.319 644.576 834.395 642.5 836.5C639.169 839.871 635.749 843.045 632.152 846.129C629.619 848.331 627.157 850.602 624.688 852.875C591.331 883.166 555.813 895.997 510.73 894.232C501.962 893.687 493.497 892.191 485 890C483.977 889.743 483.977 889.743 482.933 889.481C464.97 884.776 449.249 874.594 435 863C434.436 862.545 433.872 862.09 433.292 861.622C426.035 855.733 419.159 849.457 412.375 843.034C409.456 840.272 406.514 837.573 403.453 834.969C397.536 829.823 392.042 824.228 386.501 818.686C384.576 816.763 382.643 814.848 380.709 812.934C373.674 805.93 367.116 798.831 361 791C359.69 789.394 358.377 787.79 357.062 786.187C342.167 767.384 328.863 746.25 321.062 723.437C319.24 718.618 316.103 715.945 312.121 712.789C310.027 711.023 308.549 709.247 307 707C304.448 713.489 303.96 720.252 303.145 727.121C303.025 728.074 302.905 729.026 302.781 730.008C302.628 731.302 302.628 731.302 302.471 732.622C301.814 735.94 301.016 738.299 298.188 740.25C295.511 741.168 293.814 741.412 291 741C275.793 730.602 267.595 706.27 264 689C263.482 685 263.148 681.03 263 677C262.299 677.326 261.598 677.652 260.875 677.988C257.926 679.347 254.966 680.679 252 682C251.345 682.295 250.69 682.59 250.016 682.894C236.573 688.456 221.404 689.046 207.062 689.312C206.137 689.342 205.212 689.372 204.259 689.403C200.366 689.436 197.783 689.453 194.371 687.48C192.408 683.93 191.974 680.879 193 677C194.83 674.296 197.118 672.271 199.562 670.125C200.863 668.902 202.159 667.675 203.449 666.441C204.07 665.851 204.69 665.261 205.33 664.653C210.926 659.115 214.598 652.145 218.375 645.312C218.722 644.694 219.068 644.076 219.425 643.44C221.625 639.311 222.978 635.703 223 631C221.41 628.841 221.41 628.841 218.875 627.312C185.552 603.111 163.187 567.455 156.658 526.744C156.054 522.474 155.911 518.307 156 514C154.472 514.597 154.472 514.597 152.914 515.207C138.843 520.546 125.239 523.159 110.188 523.562C108.924 523.621 108.924 523.621 107.635 523.681C101.988 523.705 101.988 523.705 99.3188 521.8C97.2899 519.582 96.1126 517.431 95.3555 514.531C96.3227 510.733 98.7227 508.314 101.312 505.5C102.424 504.248 103.534 502.995 104.645 501.742C105.209 501.114 105.773 500.486 106.354 499.839C114.643 490.578 122.414 480.924 129.642 470.811C131 469 131 469 132.438 467.477C137.535 461.722 136.696 454.819 136.688 447.5C136.728 444.782 136.787 442.065 136.844 439.348C136.867 438.061 136.89 436.775 136.914 435.45C137.501 411.87 146.31 389.211 158 369C156.895 369.157 155.791 369.314 154.652 369.477C135.395 371.849 112.614 370.83 95 362C93 360 93 360 92.5625 356.687C93.1202 351.987 94.4151 350.998 98 348C101.25 346.586 101.25 346.586 105 345.375C120.906 339.845 135.838 331.484 149 321C149.826 320.343 149.826 320.343 150.669 319.672C163.358 309.468 174.37 298.124 184 285C184.411 284.444 184.821 283.888 185.245 283.316C191.852 274.25 196.947 264.535 202.036 254.556C215.193 228.87 231.441 205.076 250 183C250.863 181.949 251.727 180.899 252.59 179.848C264.085 165.998 276.753 153.02 291 142C292.125 141.077 293.247 140.151 294.367 139.223C308.54 127.53 323.764 117.586 340 109C340.962 108.49 340.962 108.49 341.943 107.97C369.769 93.3548 398.77 84.5649 429.688 79.2499C430.357 79.1343 431.026 79.0186 431.716 78.8994C443.112 77.0532 454.496 76.8392 466.011 76.8696C468.458 76.875 470.904 76.8696 473.35 76.8632C474.919 76.8639 476.489 76.8652 478.059 76.8671C479.145 76.8641 479.145 76.8641 480.253 76.861C483.96 76.8781 487.395 77.1152 491 77.9999C475.586 50.7328 457.008 33.4671 428.625 20.5803C428.005 20.2962 427.384 20.0122 426.745 19.7196C425.041 18.9435 423.33 18.181 421.619 17.4194C419 15.9999 419 15.9999 417 12.9999C416.327 5.93689 416.327 5.93688 418.75 2.56245C422.902 -0.320561 426.858 -0.137441 431.828 -0.168021Z" fill="#C23030"/>
<path d="M600 373C602.66 375.349 603.927 377.64 605.348 380.875C605.783 381.851 606.218 382.827 606.666 383.832C607.127 384.877 607.588 385.923 608.062 387C618.362 409.876 630.229 432.338 646.289 451.77C648 454 648 454 648 456C647.009 455.979 646.018 455.958 644.997 455.937C618.675 455.061 618.675 455.061 593 460C592.301 460.22 591.602 460.439 590.881 460.666C582.386 463.4 574.82 466.92 567.258 471.68C565 473 565 473 563 473C563 476.3 563 479.6 563 483C568.214 483.579 571.076 483.254 575.5 480.375C597.083 466.446 624.802 464.251 649.5 468.75C650.366 468.907 651.232 469.063 652.124 469.225C663.576 471.589 669.992 479.84 677.861 487.939C683.914 494.098 690.215 499.663 697 505C697.648 505.523 698.295 506.045 698.963 506.584C713.769 518.486 730.371 527.898 747 537C746.787 538.879 746.787 538.879 746.57 540.797C746.184 544.263 745.828 547.731 745.492 551.203C742.109 584.991 736.322 618.646 730 652C729.805 653.037 729.805 653.037 729.605 654.095C721.911 694.815 708.796 734.342 684 768C683.567 768.59 683.133 769.181 682.686 769.789C677.869 776.305 672.806 782.534 667.301 788.488C665.422 790.539 663.603 792.619 661.789 794.727C657.739 799.368 653.428 803.719 649.062 808.062C648.303 808.826 647.543 809.59 646.76 810.377C642.563 814.567 638.287 818.594 633.773 822.441C631.935 824.058 630.214 825.752 628.5 827.5C625.604 830.434 622.603 833.177 619.477 835.863C617.518 837.553 615.58 839.26 613.648 840.98C596.524 856.161 578.419 869.045 556 875C554.804 875.318 553.607 875.637 552.375 875.965C533.654 880.06 510.447 880.268 492 875C491.308 874.812 490.615 874.624 489.902 874.43C465.629 867.714 447.694 853.298 429.578 836.395C427.319 834.296 425.024 832.261 422.687 830.25C419.6 827.577 416.727 824.752 413.87 821.837C412.087 820.086 410.249 818.46 408.348 816.84C403.676 812.777 399.303 808.45 394.937 804.062C393.792 802.923 393.792 802.923 392.623 801.76C387.875 797.004 383.362 792.112 379 787C378.203 786.085 377.407 785.17 376.586 784.227C337.161 737.836 323.715 683.245 313.375 624.688C313.229 623.865 313.083 623.043 312.932 622.195C310.841 610.399 309.033 598.582 307.382 586.716C306.86 583.003 306.316 579.292 305.773 575.582C305.227 571.847 304.69 568.11 304.155 564.374C303.881 562.472 303.604 560.571 303.323 558.671C302.91 555.866 302.509 553.06 302.109 550.254C301.982 549.41 301.855 548.566 301.725 547.697C300.274 537.292 300.274 537.292 303.383 533.164C303.958 532.656 304.533 532.148 305.125 531.625C308.366 528.629 311.216 525.487 314.031 522.09C320.692 515.019 328.105 511.218 336.745 507.083C355.741 497.961 374.648 488.301 390.782 474.553C394.554 471.483 397.122 470.401 402.016 470.744C417.603 472.758 432.822 477.215 446 486C448.542 486.333 448.542 486.333 451 486C453.294 484.07 453.294 484.07 453.687 480.75C452.935 476.647 452.752 476.29 449.562 474C437.938 467.175 425.054 463.059 412 460C415.515 456.44 419.116 452.997 422.812 449.625C423.344 449.138 423.875 448.651 424.423 448.149C427.178 445.632 429.964 443.162 432.812 440.75C442.173 432.628 451.129 423.571 459 414C459.659 413.219 459.659 413.219 460.332 412.423C467.743 403.647 474.522 394.614 480.862 385.032C481.375 384.26 481.889 383.487 482.418 382.691C482.869 382.002 483.321 381.314 483.786 380.604C485 379 485 379 487 378C486.676 387.975 485.356 397.639 483.726 407.476C482.205 416.659 480.792 425.854 479.437 435.062C479.33 435.791 479.223 436.52 479.112 437.271C477.638 447.3 476.297 457.338 475.089 467.403C474.249 474.295 473.22 481.144 472.125 488C469.998 501.335 468.361 514.725 466.75 528.131C465.833 535.711 464.916 543.241 463.378 550.727C462.468 556.195 461.874 561.312 465 566C465.883 580.78 460.285 598.056 456 612C455.601 613.391 455.205 614.783 454.812 616.176C452.908 622.877 450.929 629.33 448.187 635.75C445.35 642.956 444.347 650.142 446.887 657.605C453.718 671.154 469.305 676.017 482.5 681.438C483.348 681.792 484.197 682.146 485.071 682.511C489.479 684.276 493.166 685.664 498 685C500.263 683.121 500.263 683.121 500.5 680.125C500.327 676.853 500.327 676.853 497.738 675.109C491.794 671.421 484.903 669.33 478.385 666.887C470.752 663.94 462.934 660.884 457.875 654.188C455.807 646.656 458.597 639.956 461.562 633.062C465.372 623.628 467.948 614.072 470.25 604.188C470.422 603.455 470.594 602.723 470.771 601.969C472.709 593.636 474.311 585.371 475.415 576.882C476.939 565.346 480.057 557.727 487.517 548.785C488.978 547.027 490.366 545.231 491.742 543.406C499.881 532.683 508.529 522.167 518.203 512.793C520.711 510.291 522.986 507.609 525.293 504.922C526.92 503.09 528.613 501.389 530.375 499.688C534.123 495.998 537.39 491.975 540.684 487.879C542.18 486.019 543.692 484.172 545.223 482.34C566.837 456.456 583.256 426.956 594 395C594.26 394.248 594.52 393.496 594.788 392.721C596.346 388.166 597.647 383.645 598.687 378.938C598.939 377.812 599.19 376.687 599.449 375.527C599.631 374.693 599.813 373.859 600 373Z" fill="#EDE8D0"/>
<path d="M431.828 -0.168021C432.821 -0.174237 432.821 -0.174237 433.834 -0.180579C435.972 -0.190234 438.111 -0.190241 440.25 -0.187552C440.976 -0.187612 441.701 -0.187673 442.449 -0.187735C452.775 -0.17542 462.815 0.161026 473 1.99995C473.897 2.13272 474.794 2.26549 475.719 2.40229C514.493 8.53384 554.415 27.8508 578.344 59.7944C583.575 67.0691 587.978 74.3257 591.258 82.707C594.757 87.3125 601.476 87.0914 606.879 87.8593C607.953 88.0021 609.027 88.1448 610.134 88.2919C639.505 92.2153 667.362 101.064 694 114C695.248 114.6 695.248 114.6 696.521 115.213C718.879 126.088 739.209 140.013 757.555 156.777C759.126 158.205 760.713 159.616 762.32 161.004C773.982 171.145 784.547 182.789 794 195C794.438 195.561 794.877 196.121 795.329 196.699C814.251 220.976 829.323 247.795 844.163 274.68C849.039 283.492 853.997 292.258 859 301C859.523 301.916 860.045 302.832 860.584 303.775C871.55 322.915 883.23 341.548 898 358C898.574 358.682 899.147 359.364 899.738 360.066C912.091 374.748 926.522 388.292 943.863 396.816C946.044 398.024 947.474 399.03 949 401C949.778 408 949.778 408 947.332 411.144C937.193 419.211 916.877 416.918 904.747 415.79C901.456 415.374 898.221 414.791 895 414C895.303 414.657 895.606 415.315 895.918 415.992C898.709 422.331 900.898 428.645 902.75 435.312C903.066 436.44 903.066 436.44 903.387 437.591C905.87 446.781 906.216 455.757 906.24 465.23C906.25 467.466 906.281 469.702 906.312 471.937C906.409 484.893 904.544 496.995 899.938 509.187C899.682 509.897 899.426 510.607 899.162 511.338C898.182 514.021 897.215 516.617 895.816 519.113C894.261 522.708 894.552 525.66 895.784 529.346C896.914 532.181 898.125 534.966 899.375 537.75C899.826 538.767 900.277 539.784 900.742 540.832C906.574 553.759 912.963 566.346 922.041 577.324C924.433 580.386 925.007 581.797 924.863 585.742C923.861 589.525 923.328 590.92 920 593C902.501 595.295 882.014 584.343 868 575C867.794 576.176 867.588 577.351 867.375 578.562C859.9 611.605 836.177 638.216 809 657C807.855 657.712 806.709 658.423 805.562 659.133C802.636 660.809 802.636 660.809 802.438 664.312C803.741 680.315 808.427 695.977 817.141 709.459C819.306 712.966 820.014 714.551 819.883 718.812C819 722 819 722 817 724.5C811.743 727.129 807.528 725.724 802.055 724.156C790.124 720.052 779.675 713.099 771 704C770.744 704.513 770.488 705.025 770.225 705.554C762.04 721.839 752.365 739.363 737 750C733.901 750.758 731.117 750.672 728 750C724.595 746.953 722.914 743.115 721 739C719.459 741.311 718.165 743.513 716.891 745.965C706.375 765.853 693.606 783.883 678.355 800.426C676.438 802.521 674.584 804.645 672.75 806.812C665.437 815.219 657.357 823.167 648.855 830.363C646.638 832.319 644.576 834.395 642.5 836.5C639.169 839.871 635.749 843.045 632.152 846.129C629.619 848.331 627.157 850.602 624.688 852.875C591.331 883.166 555.813 895.997 510.73 894.232C501.962 893.687 493.497 892.191 485 890C483.977 889.743 483.977 889.743 482.933 889.481C464.97 884.776 449.249 874.594 435 863C434.436 862.545 433.872 862.09 433.292 861.622C426.035 855.733 419.159 849.457 412.375 843.034C409.456 840.272 406.514 837.573 403.453 834.969C397.536 829.823 392.042 824.228 386.501 818.686C384.576 816.763 382.643 814.848 380.709 812.934C373.674 805.93 367.116 798.831 361 791C359.69 789.394 358.377 787.79 357.062 786.187C342.167 767.384 328.863 746.25 321.062 723.437C319.24 718.618 316.103 715.945 312.121 712.789C310.027 711.023 308.549 709.247 307 707C304.448 713.489 303.96 720.252 303.145 727.121C303.025 728.074 302.905 729.026 302.781 730.008C302.628 731.302 302.628 731.302 302.471 732.622C301.814 735.94 301.016 738.299 298.188 740.25C295.511 741.168 293.814 741.412 291 741C275.793 730.602 267.595 706.27 264 689C263.482 685 263.148 681.03 263 677C262.299 677.326 261.598 677.652 260.875 677.988C257.926 679.347 254.966 680.679 252 682C251.345 682.295 250.69 682.59 250.016 682.894C236.573 688.456 221.404 689.046 207.062 689.312C206.137 689.342 205.212 689.372 204.259 689.403C200.366 689.436 197.783 689.453 194.371 687.48C192.408 683.93 191.974 680.879 193 677C194.83 674.296 197.118 672.271 199.562 670.125C200.863 668.902 202.159 667.675 203.449 666.441C204.07 665.851 204.69 665.261 205.33 664.653C210.926 659.115 214.598 652.145 218.375 645.312C218.722 644.694 219.068 644.076 219.425 643.44C221.625 639.311 222.978 635.703 223 631C221.41 628.841 221.41 628.841 218.875 627.312C185.552 603.111 163.187 567.455 156.658 526.744C156.054 522.474 155.911 518.307 156 514C154.472 514.597 154.472 514.597 152.914 515.207C138.843 520.546 125.239 523.159 110.188 523.562C108.924 523.621 108.924 523.621 107.635 523.681C101.988 523.705 101.988 523.705 99.3188 521.8C97.2899 519.582 96.1126 517.431 95.3555 514.531C96.3227 510.733 98.7227 508.314 101.312 505.5C102.424 504.248 103.534 502.995 104.645 501.742C105.209 501.114 105.773 500.486 106.354 499.839C114.643 490.578 122.414 480.924 129.642 470.811C131 469 131 469 132.438 467.477C137.535 461.722 136.696 454.819 136.688 447.5C136.728 444.782 136.787 442.065 136.844 439.348C136.867 438.061 136.89 436.775 136.914 435.45C137.501 411.87 146.31 389.211 158 369C156.895 369.157 155.791 369.314 154.652 369.477C135.395 371.849 112.614 370.83 95 362C93 360 93 360 92.5625 356.687C93.1202 351.987 94.4151 350.998 98 348C101.25 346.586 101.25 346.586 105 345.375C120.906 339.845 135.838 331.484 149 321C149.826 320.343 149.826 320.343 150.669 319.672C163.358 309.468 174.37 298.124 184 285C184.411 284.444 184.821 283.888 185.245 283.316C191.852 274.25 196.947 264.535 202.036 254.556C215.193 228.87 231.441 205.076 250 183C250.863 181.949 251.727 180.899 252.59 179.848C264.085 165.998 276.753 153.02 291 142C292.125 141.077 293.247 140.151 294.367 139.223C308.54 127.53 323.764 117.586 340 109C340.962 108.49 340.962 108.49 341.943 107.97C369.769 93.3548 398.77 84.5649 429.688 79.2499C430.357 79.1343 431.026 79.0186 431.716 78.8994C443.112 77.0532 454.496 76.8392 466.011 76.8696C468.458 76.875 470.904 76.8696 473.35 76.8632C474.919 76.8639 476.489 76.8652 478.059 76.8671C479.145 76.8641 479.145 76.8641 480.253 76.861C483.96 76.8781 487.395 77.1152 491 77.9999C475.586 50.7328 457.008 33.4671 428.625 20.5803C428.005 20.2962 427.384 20.0122 426.745 19.7196C425.041 18.9435 423.33 18.181 421.619 17.4194C419 15.9999 419 15.9999 417 12.9999C416.327 5.93689 416.327 5.93688 418.75 2.56245C422.902 -0.320561 426.858 -0.137441 431.828 -0.168021ZM459 16.9999C461.324 19.523 463.957 21.5438 466.683 23.6147C486.386 38.6332 505.364 60.4685 512 84.9999C512.083 87.9561 511.724 90.1046 511 92.9999C504.354 95.2153 496.704 94.0955 489.812 93.4999C420.242 88.2248 352.932 110.581 299.932 155.701C287.567 166.354 275.536 177.515 265 190C264.287 190.824 263.574 191.647 262.84 192.496C244.112 214.452 229.267 238.661 215.77 264.078C215.207 265.132 214.644 266.185 214.064 267.271C212.974 269.315 211.891 271.362 210.817 273.415C207.594 279.458 204.011 284.991 199.898 290.469C197.935 293.086 196.058 295.753 194.188 298.437C189.598 304.749 184.381 310.366 179 316C178.309 316.732 177.618 317.464 176.906 318.219C163.584 331.978 147.146 343.531 130 352C130 352.66 130 353.32 130 354C144.474 354.462 158.193 353.42 172.125 349.25C176.823 347.849 180.217 348.007 185 349C186.36 356.292 186.36 356.292 184.746 359.469C183.019 361.973 181.224 364.397 179.375 366.812C171.697 377.304 165.486 388.797 161 401C160.354 402.721 160.354 402.721 159.695 404.477C157.252 411.345 155.417 418.084 154.125 425.25C153.993 425.977 153.86 426.704 153.724 427.454C153.178 430.753 152.927 432.779 154 436C154.814 434.644 154.814 434.644 155.645 433.262C156.367 432.07 157.09 430.879 157.812 429.687C158.169 429.093 158.525 428.498 158.893 427.885C162.615 421.771 162.615 421.771 165 420C168.477 419.285 171.85 419.389 175 421.062C176.561 424.086 176.616 426.726 176 430C174.333 433.71 172.186 437.076 170 440.5C169.375 441.501 168.75 442.502 168.106 443.533C155.303 463.821 141.375 483.604 125.766 501.84C123.895 503.664 123.895 503.664 124 505C129.463 505.242 133.912 504.473 139.125 502.875C139.863 502.656 140.6 502.436 141.361 502.21C147.272 500.384 152.675 497.995 158.168 495.137C161.409 493.836 163.539 493.574 167 494C169.142 495.158 169.142 495.158 171 497C171.542 499.638 171.542 499.638 171.617 502.828C171.686 504.6 171.686 504.6 171.757 506.407C171.796 507.675 171.835 508.943 171.875 510.25C173.804 548.559 190.841 579.423 218 606C222.51 610.021 227.243 613.694 232.09 617.297C233.091 618.065 234.093 618.833 235.125 619.625C236.035 620.298 236.945 620.971 237.883 621.664C240.73 624.805 240.915 626.792 241 631C240.481 633.653 239.911 635.964 239.062 638.5C238.727 639.532 238.727 639.532 238.384 640.584C234.551 651.784 228.766 662.045 221 671C223.967 671.915 225.986 672.023 229.012 671.363C229.765 671.2 230.518 671.038 231.294 670.87C232.084 670.686 232.874 670.502 233.688 670.312C234.5 670.125 235.313 669.938 236.151 669.745C241.78 668.399 246.927 666.836 252 664C253.009 663.438 254.019 662.876 255.059 662.297C260.798 659.068 260.798 659.068 266.164 655.277C268 654 268 654 271.062 654.125C274.134 655.04 275.082 655.527 277 658C277.461 660.214 277.461 660.214 277.59 662.797C277.65 663.748 277.709 664.7 277.771 665.68C277.826 666.693 277.881 667.706 277.938 668.75C278.942 682.871 282.117 695.053 288 708C290.191 704.713 291.213 701.474 292.375 697.75C296.085 686.482 296.085 686.482 299 683C301.188 682.3 301.188 682.3 303.641 681.832C304.456 681.671 305.271 681.509 306.11 681.343C307.046 681.173 307.046 681.173 308 681C305.603 667.996 303.202 654.993 300.75 642C300.587 641.13 300.425 640.259 300.257 639.362C300.105 638.562 299.953 637.762 299.797 636.937C299.666 636.245 299.536 635.553 299.401 634.84C298.987 632.783 298.987 632.783 298 630C295.617 629.169 293.312 628.501 290.875 627.875C270.994 622.169 256.945 608.891 247 591C238.4 574.161 234.317 555.773 233.438 537C233.394 536.13 233.351 535.26 233.307 534.363C233.202 532.242 233.1 530.121 233 528C232.366 528.11 231.732 528.219 231.078 528.332C224.29 529.485 217.492 530.572 210.688 531.625C209.84 531.76 208.993 531.895 208.12 532.034C201.94 532.979 196.116 533.664 190 532C188.255 524.664 188.255 524.664 189.881 521.031C191.267 519.09 192.746 517.298 194.312 515.5C195.435 514.111 196.551 512.716 197.66 511.316C198.224 510.606 198.787 509.896 199.368 509.164C203.412 503.802 206.616 497.875 209.877 492.016C210.918 490.147 211.98 488.292 213.047 486.437C218.044 477.572 221.912 468.308 225.676 458.859C226.281 457.355 226.281 457.355 226.898 455.82C227.256 454.915 227.614 454.011 227.982 453.079C229 451 229 451 231 450C237.471 449.647 237.471 449.647 241 452C242.554 459.266 240.019 465.64 237 472.125C236.592 473.034 236.184 473.944 235.764 474.881C234.533 477.599 233.273 480.301 232 483C231.643 483.763 231.286 484.526 230.917 485.311C226.942 493.728 222.515 501.702 217.469 509.523C215.83 511.807 215.83 511.807 216 514C229.652 513.682 241.723 508.893 253.875 503.062C255.187 502.453 255.187 502.453 256.525 501.83C261.273 499.494 261.273 499.494 264.453 495.43C264.634 494.298 264.814 493.166 265 492C265.145 491.149 265.29 490.299 265.44 489.423C266.131 485.261 266.729 481.088 267.324 476.912C269.309 463.74 273.108 451.102 277.3 438.49C277.944 436.542 278.573 434.589 279.201 432.635C283.994 418.005 283.994 418.005 289 413C295.201 412.426 295.201 412.426 298 414.437C300.787 421.58 297.131 428.544 294.368 435.147C291.675 441.625 289.797 448.221 288 455C287.597 456.42 287.192 457.839 286.785 459.258C283.198 472.013 280.95 484.902 279 498C278.821 499.096 278.641 500.192 278.456 501.321C277.966 505.274 277.873 509.147 277.902 513.121C277.904 513.866 277.905 514.611 277.907 515.378C277.912 517.731 277.925 520.084 277.938 522.437C277.943 524.044 277.947 525.65 277.951 527.256C277.962 531.171 277.979 535.085 278 539C281.262 535.773 284.273 532.533 287.125 528.937C292.166 522.719 297.534 516.841 303 511C303.576 510.385 304.151 509.769 304.744 509.135C306.62 507.131 308.497 505.128 310.375 503.125C311.329 502.107 311.329 502.107 312.302 501.068C315.345 497.822 318.394 494.583 321.461 491.359C328.31 484.126 334.618 476.649 340.662 468.732C341.988 467.016 343.341 465.326 344.707 463.641C355.485 450.301 364.783 436.047 373 421C373.632 419.881 374.263 418.762 374.914 417.609C379.78 408.869 383.778 399.841 387.587 390.592C387.988 389.637 388.388 388.683 388.801 387.699C389.153 386.842 389.505 385.984 389.868 385.1C391 383 391 383 394 381C400.02 380.462 400.02 380.462 402.938 382.062C404.589 385.073 404.198 387.605 404 391C400.934 401.115 395.872 410.695 391.01 420.049C390.049 421.906 389.107 423.772 388.168 425.641C379.32 443 368.252 460.572 355.375 475.25C352.782 477.647 352.782 477.647 353 480C356.432 478.72 359.409 477.24 362.477 475.242C363.307 474.703 364.137 474.164 364.992 473.609C365.861 473.036 366.73 472.464 367.625 471.875C368.523 471.287 369.421 470.699 370.346 470.092C376.707 465.903 382.935 461.609 389 457C390.008 456.246 391.016 455.492 392.055 454.715C411.034 440.416 430.749 424.256 445.148 405.289C447 403 447 403 449.301 400.746C452.785 397.202 455.778 393.368 458.812 389.437C459.436 388.63 460.06 387.823 460.703 386.991C465.428 380.832 469.868 374.575 474 368C474.473 367.254 474.945 366.508 475.432 365.74C481.926 355.474 488.212 345.143 493.929 334.421C496.796 329.102 496.796 329.102 499 328C502.503 327.619 504.363 327.597 507.375 329.5C510.824 334.807 508.787 342.245 507.688 348.187C507.408 349.782 507.131 351.377 506.855 352.973C506.713 353.798 506.57 354.623 506.423 355.473C504.26 368.385 502.653 381.395 501.09 394.391C500.35 400.48 499.478 406.537 498.529 412.597C497.583 418.683 496.703 424.78 495.812 430.875C494.305 441.184 492.779 451.491 491.223 461.793C487.392 486.893 487.392 486.893 484.062 512.062C483.946 513.024 483.83 513.985 483.71 514.975C483.21 519.343 482.877 523.595 483 528C486.842 524.391 490.004 520.504 493.156 516.281C495.275 513.659 497.602 511.37 500 509C502.269 506.601 504.508 504.174 506.75 501.75C510.694 497.497 514.656 493.297 518.812 489.25C523.625 484.491 527.788 479.289 532 474C532.959 472.829 533.92 471.66 534.883 470.492C558.876 441.222 575.593 407.65 585 371C585.25 370.03 585.5 369.061 585.758 368.061C586.479 365.232 587.183 362.399 587.875 359.562C588.079 358.729 588.282 357.895 588.492 357.036C589.59 352.338 590.338 347.734 590.746 342.925C591.142 339.925 591.933 338.205 594 336C597.375 334.875 597.375 334.875 601 335C606.925 339.226 608.36 345.661 610.625 352.312C615.031 364.722 620.116 376.639 625.807 388.509C626.819 390.621 627.81 392.741 628.793 394.867C638.684 415.627 652.241 435.399 667 453C667.406 453.495 667.812 453.989 668.23 454.499C679.785 468.572 692.466 481.973 707 493C707.927 493.721 708.854 494.441 709.809 495.184C712.839 497.506 715.906 499.764 719 502C720.061 502.77 721.122 503.539 722.215 504.332C738.572 515.866 756.823 525.243 776 531C777.183 531.374 778.367 531.748 779.586 532.133C793.981 536.5 808.022 538.462 823 539C819.893 534.717 816.698 530.626 813.202 526.652C806.215 518.66 800.492 510.07 795 501C794.6 500.341 794.201 499.683 793.789 499.004C787.255 488.107 781.95 476.691 777 465C776.626 464.118 776.253 463.237 775.868 462.329C775.505 461.452 775.143 460.575 774.77 459.672C774.442 458.881 774.114 458.091 773.777 457.276C772.509 453.562 772.462 450.902 773 447C774.625 444.5 774.625 444.5 777 443C781.108 442.497 782.509 442.672 786 445C787.084 447.189 787.084 447.189 788.094 449.926C788.671 451.447 788.671 451.447 789.26 452.998C789.874 454.639 789.874 454.639 790.5 456.312C797.59 474.577 806.345 491.245 818 507C818.602 507.822 819.204 508.645 819.824 509.492C821.5 511.708 823.229 513.859 825 516C825.424 516.512 825.847 517.025 826.284 517.553C832.498 525.031 838.927 532.13 845.918 538.891C848.429 541.435 848.94 542.314 849.25 545.875C848.973 549.339 848.427 550.573 846 553C842.825 554.058 840.357 554.202 837.02 554.316C835.856 554.358 834.693 554.4 833.494 554.443C832.279 554.483 831.064 554.522 829.812 554.562C827.973 554.627 827.973 554.627 826.096 554.693C823.064 554.799 820.032 554.902 817 555C816.671 556.363 816.671 556.363 816.336 557.754C809.737 583.907 798.726 607.658 775 622C774.339 622.428 773.677 622.856 772.996 623.297C769.76 625.179 766.357 626.241 762.734 627.121C761.959 627.309 761.184 627.498 760.386 627.692C756.932 628.5 753.469 629.259 750 630C747.564 640.413 745.451 650.849 743.562 661.375C740.711 677.097 737.097 692.398 731.918 707.519C730.373 713.376 730.573 717.902 733 723.437C733.371 724.302 733.743 725.167 734.125 726.059C734.414 726.699 734.702 727.34 735 728C740.385 724.41 743.561 719.356 747 714C747.691 712.929 747.691 712.929 748.396 711.837C752.83 704.747 755.804 697.398 758.742 689.596C759.108 688.658 759.474 687.72 759.852 686.754C760.169 685.912 760.487 685.069 760.815 684.201C762.2 681.629 763.495 680.478 766 679C770.278 678.901 771.743 679.766 774.93 682.66C775.925 683.782 776.906 684.917 777.875 686.062C778.918 687.246 779.962 688.428 781.008 689.609C781.513 690.187 782.019 690.766 782.54 691.361C785.537 694.725 788.773 697.858 792 701C792.66 700.67 793.32 700.34 794 700C793.746 699.45 793.492 698.899 793.23 698.332C787.998 685.691 784.336 666.599 787 653C790.237 648.962 794.244 646.4 798.625 643.75C824.553 627.511 843.971 603.649 852 574C852.346 572.489 852.683 570.976 853.012 569.461C853.262 568.315 853.262 568.315 853.518 567.146C853.83 565.675 854.123 564.2 854.394 562.721C855.406 557.788 856.857 554.93 861 552C865.689 551.946 868.094 553.498 871.5 556.562C879.001 562.87 887.57 568.171 897 571C895.499 566.95 893.551 563.325 891.438 559.562C883.276 544.459 877.633 528.498 872.625 512.125C872.414 511.442 872.203 510.758 871.985 510.054C862.124 477.936 862.124 477.936 866.062 468.437C869.105 466.18 871.331 466.485 875 467C878.768 469.923 879.643 472.378 880.414 477.008C880.618 478.159 880.821 479.31 881.031 480.496C881.325 482.292 881.325 482.292 881.625 484.125C882.027 486.504 882.436 488.881 882.852 491.258C883.025 492.311 883.199 493.364 883.377 494.45C883.802 497.149 883.802 497.149 886 499C894.676 473.707 891.14 443.871 879.992 419.826C877.342 414.492 874.466 409.294 871.258 404.273C870 402 870 402 870.062 398.937C871.178 395.442 871.895 393.99 875 392C881.24 392.378 886.784 394.024 892.688 396C902.288 399.171 902.288 399.171 912.312 400.062C913.637 400.049 913.637 400.049 914.988 400.035C915.652 400.023 916.316 400.012 917 400C913.016 395.883 908.784 392.083 904.5 388.281C901.919 385.926 899.463 383.478 897 381C896.123 380.17 895.247 379.34 894.344 378.484C883.315 367.88 874.247 355.801 865.934 342.977C864.198 340.304 862.406 337.677 860.602 335.051C846.34 314.117 834.614 291.433 822.483 269.223C816.668 258.58 810.595 248.181 804 238C803.533 237.278 803.067 236.556 802.586 235.812C792.221 219.849 781.082 204.832 768.426 190.61C767.166 189.187 765.923 187.749 764.684 186.309C761.141 182.212 757.498 178.537 753.355 175.051C751.53 173.462 749.787 171.85 748.051 170.168C734.532 157.127 719.457 146.051 703 137C702.068 136.479 701.135 135.959 700.174 135.422C683.278 126.059 666.4 118.915 648 113C647.092 112.696 646.183 112.392 645.247 112.08C627.292 106.105 607.676 102.706 588.789 101.613C585.498 101.333 584.247 101.167 581.457 99.2851C579.827 96.728 578.731 94.2864 577.688 91.4374C565.901 61.9893 539.125 41.4177 510.817 29.0458C494.827 22.4323 476.521 16.4455 459 16.9999ZM600 373C599.792 373.839 599.585 374.678 599.371 375.543C589.882 412.586 573.566 445.918 550 476C549.428 476.757 548.855 477.513 548.266 478.293C540.557 488.462 532.101 498.138 522.965 507.043C520.5 509.498 518.247 512.095 515.988 514.738C514.01 516.989 511.959 519.158 509.895 521.33C499.51 532.317 490.438 544.467 482 557C481.327 557.809 480.654 558.619 479.961 559.453C476.732 564.333 476.514 570.403 475.688 576.062C475.266 578.684 474.84 581.303 474.402 583.922C474.291 584.591 474.179 585.261 474.064 585.95C471.074 603.537 466.793 620.729 459.757 637.152C457.335 643.012 456.157 647.774 458 654C464.25 662.669 476.399 666.603 486 670.25C488.231 671.105 490.46 671.964 492.688 672.828C493.661 673.198 494.634 673.569 495.637 673.95C498 675 498 675 500 677C500.25 680 500.25 680 500 683C498 685 498 685 495.286 685.274C491.587 684.966 488.855 684.026 485.422 682.621C484.81 682.371 484.199 682.122 483.569 681.864C482.279 681.334 480.992 680.798 479.707 680.258C477.776 679.448 475.836 678.664 473.895 677.881C464.647 674.081 454.583 669.709 449 661C448.423 660.175 447.845 659.35 447.25 658.5C442.943 646.442 447.79 635.752 452.104 624.467C453.593 620.368 454.782 616.186 456 612C456.327 610.969 456.655 609.937 456.992 608.875C459.456 600.85 461.148 592.735 462.75 584.5C463.084 582.798 463.084 582.798 463.425 581.062C463.63 579.98 463.836 578.897 464.047 577.781C464.231 576.812 464.415 575.844 464.604 574.846C465.499 568.586 465.499 568.586 463 563C462.296 556.654 463.225 550.293 464.281 544.039C464.561 542.282 464.838 540.524 465.113 538.767C465.259 537.836 465.405 536.906 465.555 535.947C466.352 530.67 467.033 525.378 467.719 520.086C467.937 518.41 467.937 518.41 468.16 516.701C468.759 512.102 469.355 507.503 469.948 502.903C471.453 491.251 472.981 479.621 474.978 468.041C476.121 461.402 477.021 454.744 477.875 448.062C479.381 436.53 480.971 425.012 482.625 413.5C482.729 412.774 482.833 412.048 482.941 411.301C483.145 409.881 483.349 408.461 483.553 407.041C483.75 405.673 483.947 404.304 484.143 402.935C484.617 399.634 485.098 396.334 485.593 393.035C485.776 391.796 485.96 390.558 486.148 389.281C486.313 388.189 486.477 387.096 486.646 385.971C486.967 383.276 487.068 380.71 487 378C483.08 381.566 480.291 385.722 477.312 390.062C470.501 399.842 463.132 408.878 455.094 417.687C453.311 419.656 451.589 421.659 449.875 423.687C441.695 433.074 432.625 442.099 423 450C422.036 450.795 421.072 451.591 420.078 452.41C417.392 454.615 414.7 456.812 412 459C414.704 461.704 417.635 461.961 421.25 462.75C431.923 465.261 445.223 468.904 453 477C453.688 480.75 453.688 480.75 453 484C452.34 484.66 451.68 485.32 451 486C446.757 485.915 443.842 485.078 440.375 482.75C430.94 476.472 419.991 474.054 409 472C407.672 471.733 407.672 471.733 406.316 471.461C399.569 470.087 399.569 470.087 393.414 472.621C391.41 474.161 389.423 475.725 387.449 477.305C373.863 488.137 358.026 496.66 342.434 504.199C341.288 504.757 340.141 505.315 338.961 505.889C336.718 506.974 334.468 508.043 332.209 509.095C324.664 512.736 318.92 517.092 313 523C312.409 523.576 311.818 524.152 311.208 524.746C309.752 526.194 308.343 527.689 306.938 529.187C306.466 529.669 305.995 530.15 305.51 530.646C302.312 534.084 301.403 536.374 301 541C301.199 544.112 301.645 547.172 302.109 550.254C302.237 551.15 302.364 552.046 302.496 552.969C302.905 555.835 303.327 558.699 303.75 561.562C304.019 563.429 304.287 565.295 304.555 567.162C305.093 570.911 305.637 574.659 306.187 578.407C306.723 582.075 307.247 585.744 307.759 589.415C309.377 601.005 311.207 612.54 313.25 624.062C313.399 624.904 313.547 625.746 313.7 626.614C315.8 638.491 317.941 650.362 320.192 662.212C320.475 663.705 320.754 665.199 321.031 666.693C322.959 677.075 325.66 686.985 329 697C329.306 697.937 329.612 698.875 329.927 699.841C341.038 733.575 357.825 764.303 382.367 790.191C384.391 792.35 386.333 794.532 388.262 796.773C392.291 801.402 396.588 805.735 400.938 810.062C401.697 810.826 402.457 811.59 403.24 812.377C407.437 816.567 411.713 820.594 416.227 824.441C418.065 826.057 419.786 827.752 421.5 829.5C425.163 833.212 429.043 836.606 433 840C434.067 840.93 435.133 841.861 436.199 842.793C467.309 869.878 497.836 879.912 539 878C551.693 876.83 563.511 873.466 575 868C575.621 867.706 576.241 867.412 576.881 867.109C590.684 860.468 601.761 851.343 613 841C614.288 839.87 615.579 838.745 616.875 837.625C622.344 832.853 627.674 827.93 633 823C633.614 822.432 634.229 821.864 634.862 821.279C653.902 803.858 653.902 803.858 670.98 784.57C672.301 782.89 673.657 781.237 675.051 779.617C721.717 725.187 731.51 651.993 741.312 583.562C741.436 582.704 741.559 581.846 741.686 580.962C743.246 570.033 744.607 559.094 745.773 548.115C746.171 544.409 746.586 540.704 747 537C745.921 536.417 744.842 535.835 743.73 535.234C726.89 526.06 710.761 516.284 696 504C694.898 503.104 693.797 502.208 692.695 501.312C684.421 494.482 676.869 487.017 669.396 479.322C668.623 478.533 667.851 477.743 667.055 476.93C666.369 476.22 665.683 475.511 664.976 474.781C654.931 465.729 634.294 466.122 621.562 466.551C604.743 467.611 586.742 472.496 572.785 482.098C569.544 483.736 566.552 483.317 563 483C563 479.7 563 476.4 563 473C563.675 472.749 564.351 472.497 565.047 472.238C567.88 471.05 570.555 469.675 573.265 468.233C582.185 463.535 591.185 460.281 601 458C601.759 457.812 602.519 457.623 603.302 457.429C612.365 455.453 621.466 455.779 630.688 455.875C632.372 455.885 634.056 455.894 635.74 455.902C639.827 455.924 643.913 455.959 648 456C646.732 453.335 645.352 450.968 643.602 448.594C627.854 426.943 614.086 403.348 604.003 378.505C602.771 375.1 602.771 375.1 600 373Z" fill="black"/>
<path d="M682.375 520.125C685 523 685 523 685.625 526.187C685 529 685 529 683.875 530.875C681.144 532.513 679.142 532.26 676 532C673.754 530.715 673.754 530.715 671.563 528.937C667.346 525.799 663.119 523.399 658.375 521.187C657.766 520.898 657.157 520.609 656.53 520.31C652.086 518.283 647.741 517.073 643 516C643.374 516.499 643.748 516.997 644.133 517.511C649.31 524.413 649.774 530.394 649 539C647.295 545.185 643.311 549.533 638 553C631.946 555.981 625.589 555.819 619 555C612.287 552.395 607.94 547.484 605 541C603.165 535.1 602.754 528.737 605.34 523.059C606.808 520.63 608.329 518.293 610 516C596.898 518.52 585.673 525.699 576.75 535.5C574 538 574 538 570.813 538.562C568 538 568 538 566.125 536.875C564.341 533.901 564.352 532.437 565 529C573.579 515.169 591.965 506.264 607.188 502C633.85 496.802 660.957 503.696 682.375 520.125Z" fill="black"/>
<path d="M418 504C419.466 504.528 419.466 504.528 420.961 505.066C434.176 510.213 447.937 517.906 456 530C455.556 535.444 455.556 535.444 453 538C449.664 538.406 449.664 538.406 446 538C443.586 536.094 443.586 536.094 441.375 533.5C435.894 527.563 429.998 523.927 423 520C422.505 520.495 422.505 520.495 422 521C422.322 521.521 422.645 522.042 422.977 522.578C425.35 528.194 424.877 535.661 423.348 541.484C420.489 547.814 415.405 552.196 409.062 554.875C403.262 556.742 398.4 556.891 392.812 554.313C386.187 550.636 381.477 545.123 379 538C378.076 530.809 378.892 525.011 383 519C384.318 517.321 385.649 515.652 387 514C371.968 516.526 358.052 521.119 345.848 530.688C343.153 532.602 341.218 532.411 338 532C336.125 530.875 336.125 530.875 335 529C334.375 526.188 334.375 526.188 335 523C353.84 502.366 392.166 494.512 418 504Z" fill="black"/>
<path d="M606 705C609.438 705.25 609.438 705.25 613 706C615.17 709.255 615.549 710.224 615 714C597.611 736.907 559.831 741.75 533.697 745.36C529.136 745.963 524.577 746.529 520 747C519.072 747.096 518.143 747.193 517.187 747.292C506.722 748.239 496.248 748.197 485.75 748.188C484.78 748.188 483.809 748.188 482.81 748.188C471.18 748.177 459.599 748.053 448 747.125C447.012 747.047 446.025 746.968 445.007 746.887C440.88 746.497 437.607 746.184 434 744C432.601 741.201 432.747 739.095 433 736C434.237 734.314 434.237 734.314 436 733C438.064 732.748 438.064 732.748 440.465 732.919C441.818 733 441.818 733 443.198 733.083C444.176 733.155 445.153 733.227 446.16 733.301C448.259 733.424 450.358 733.543 452.458 733.659C453.541 733.72 454.625 733.781 455.742 733.844C463.938 734.237 472.148 734.186 480.352 734.185C483.433 734.187 486.514 734.206 489.596 734.225C508.642 734.28 527.636 733.257 546.375 729.688C547.547 729.469 548.719 729.25 549.927 729.025C569.811 725.211 591.135 719.865 606 705Z" fill="black"/>
<path d="M763 544C766.108 544.501 768.954 545.316 771.906 546.375C777.686 548.324 783.588 549.496 789.562 550.688C790.667 550.912 791.771 551.137 792.908 551.369C795.605 551.918 798.302 552.461 801 553C796.421 574.659 788.137 593.706 769.75 607.062C764.265 610.626 759.687 613.193 753 613C753.676 601.936 755.34 591.023 756.938 580.062C757.205 578.204 757.473 576.345 757.74 574.486C758.372 570.102 759.011 565.719 759.656 561.337C759.876 559.842 760.095 558.346 760.312 556.851C760.581 555.003 760.855 553.156 761.129 551.309C761.275 550.315 761.422 549.322 761.573 548.299C762 546 762 546 763 544Z" fill="#EDE8D0"/>
<path d="M261 518C261.025 518.937 261.05 519.874 261.076 520.839C261.172 524.373 261.271 527.906 261.372 531.44C261.415 532.958 261.457 534.477 261.497 535.996C261.103 553.599 261.103 553.599 266 570C269.491 572.327 270.892 572.503 275 572C278.311 569.185 280.474 565.926 282.75 562.25C283.364 561.265 283.977 560.28 284.609 559.266C285.068 558.518 285.527 557.77 286 557C289.052 560.052 288.917 563.874 289.473 567.996C289.601 568.899 289.729 569.803 289.86 570.733C290.131 572.652 290.397 574.571 290.659 576.491C291.057 579.396 291.466 582.298 291.877 585.201C293.129 594.115 294.371 603.016 295 612C286.473 611.811 279.459 606.535 273.375 600.875C252.923 578.854 248.463 550.881 249 522C250.434 521.326 251.873 520.661 253.313 520C254.113 519.629 254.914 519.257 255.738 518.875C258 518 258 518 261 518Z" fill="#EDE8D0"/>
<path d="M549 763C551 765 551 765 551.375 768.437C551 772 551 772 549.316 773.594C546.775 775.136 544.381 776.118 541.562 777.062C540.172 777.544 540.172 777.544 538.754 778.035C528.645 780.633 518.682 781.326 508.269 781.261C506.238 781.25 504.207 781.261 502.176 781.273C485.36 781.24 485.36 781.24 479 777C478.341 770.963 478.341 770.963 480.19 768.259C482.751 766.477 484.276 766.891 487.34 767.289C506.824 769.426 532.091 759.125 549 763Z" fill="black"/>
</g>
<defs>
<clipPath id="clip0_22_371">
<rect width="1024" height="1024" fill="white"/>
</clipPath>
</defs>
</svg>
